<?xml version="1.0" encoding="UTF-8"?>
<!DOCTYPE svg PUBLIC "-//W3C//DTD SVG 1.1//EN" "http://www.w3.org/Graphics/SVG/1.1/DTD/svg11.dtd">
<!-- Creator: CorelDRAW 2021.5 -->
<svg xmlns="http://www.w3.org/2000/svg" xml:space="preserve" width="2027px" height="478px" version="1.1" style="shape-rendering:geometricPrecision; text-rendering:geometricPrecision; image-rendering:optimizeQuality; fill-rule:evenodd; clip-rule:evenodd"
viewBox="0 0 2186.082 516.117"
 xmlns:xlink="http://www.w3.org/1999/xlink"
 xmlns:xodm="http://www.corel.com/coreldraw/odm/2003">
 <defs>
  <style type="text/css">
   <![CDATA[
    .fil2 {fill:#58595B;fill-rule:nonzero}
    .fil1 {fill:#939598;fill-rule:nonzero}
    .fil0 {fill:#A71830;fill-rule:nonzero}
   ]]>
  </style>
 </defs>
 <g id="Layer_x0020_1">
  <metadata id="CorelCorpID_0Corel-Layer"/>
  <g id="DesignArth1.svg">
   <g>
    <path class="fil0" d="M239.415 337.299c43.645,8.898 86.443,-19.493 94.918,-63.562 8.899,-43.646 -19.492,-86.443 -63.562,-94.918 -43.645,-8.899 -86.443,19.492 -94.918,63.562 -8.474,43.645 19.917,86.02 63.562,94.918z"/>
    <path class="fil1" d="M444.082 258.06c0,-111.444 -82.206,-183.057 -209.753,-183.057l-128.817 0c0,0 0,0 0,0.425 -0.846,2.543 -2.118,4.66 -3.39,7.203l10.594 14.408c-4.237,6.78 -9.322,13.136 -15.254,18.645l-16.102 -7.628c-2.966,2.119 -5.51,4.238 -8.898,6.357l2.118 17.797c-7.203,3.814 -14.829,6.357 -22.458,8.476l-10.17 -14.83c-3.39,0.424 -7.204,0.847 -10.594,0.847l-7.203 16.526c-7.629,-0.424 -15.68,-1.694 -23.306,-3.813l0 108.054 90.679 -0.005c0,-1.271 0,-2.118 0,-3.39l28.39 -8.051c0.425,-1.695 0.425,-2.966 0.848,-4.66 0.847,-4.238 2.118,-8.475 2.966,-12.713l-22.034 -19.915c4.66,-12.713 11.017,-24.153 18.645,-34.748l28.815 7.204c3.813,-4.661 7.628,-8.898 11.864,-12.713l-9.322 -28.391c10.17,-8.475 21.611,-15.254 33.475,-20.763l21.187 20.763c5.509,-2.118 11.017,-3.813 16.949,-5.084l6.357 -29.239c12.713,-2.118 26.271,-2.543 39.407,-1.271l8.051 28.39c1.694,0.425 2.966,0.425 4.66,0.848 4.238,0.847 8.476,2.119 12.713,2.966l19.916 -22.034c12.713,4.661 24.153,11.017 34.746,18.645l-7.203 28.815c4.66,3.813 8.898,7.628 12.713,11.864l28.39 -9.322c8.475,10.17 15.255,21.61 20.765,33.475l-20.765 21.187c2.119,5.509 3.814,11.017 5.086,16.949l29.237 6.357c2.119,12.713 2.543,26.271 1.271,39.407l-28.39 8.051c-0.424,1.694 -0.424,2.966 -0.847,4.661 -0.847,4.237 -2.119,8.475 -3.391,12.713l22.035 19.915c-4.661,12.713 -11.017,24.153 -18.646,34.746l-28.815 -7.203c-3.813,4.66 -7.628,8.898 -11.864,12.713l9.323 28.39c-10.17,8.476 -21.611,15.256 -33.475,20.765l-21.187 -20.765c-5.509,2.12 -11.017,3.814 -16.949,5.086l-6.357 29.237c-12.713,2.119 -26.271,2.543 -39.408,1.272l-8.05 -28.815c-1.272,-0.424 -2.966,-0.424 -4.661,-0.847 -4.238,-0.847 -8.475,-2.119 -12.713,-3.39l-19.915 22.033c-12.713,-4.661 -24.153,-11.017 -34.747,-18.645l7.203 -28.815c-4.66,-3.813 -8.897,-7.628 -12.712,-11.864l-28.391 9.322c-8.475,-10.169 -15.255,-21.61 -20.764,-33.475l20.764 -21.187c-2.119,-5.509 -3.814,-11.017 -5.085,-16.949l-29.237 -6.356c-0.425,-1.694 -0.425,-3.391 -0.425,-5.085l-91.951 0.003 0 122.885 3.391 1.271c2.118,-2.543 4.66,-5.084 7.203,-7.204l-4.66 -16.526c6.356,-4.66 12.713,-8.475 19.915,-11.441l11.864 12.713c3.391,-1.272 6.357,-2.119 9.746,-2.543l4.238 -16.526c7.627,-0.848 15.254,-0.848 22.882,0.424l3.814 16.949c0.846,0 1.693,0.424 2.543,0.424 2.543,0.425 5.084,1.272 7.204,2.119l12.288 -12.289c7.204,2.966 13.56,7.204 19.915,11.865l-5.084 16.526c2.543,2.119 5.084,4.661 7.202,7.204l16.527 -4.661c4.661,6.357 8.476,12.713 11.442,19.915l-12.713 11.865c1.271,3.39 2.118,6.356 2.543,9.745l2.543 0.847 90.679 0.002c128.394,0 210.6,-72.036 210.6,-183.056z"/>
    <path class="fil0" d="M0 88.14c2.543,1.271 4.661,2.966 7.629,3.813 27.118,11.441 58.476,-1.272 69.916,-28.816 9.745,-22.882 1.694,-49.154 -17.374,-63.137l-60.171 0 0 88.14z"/>
    <path class="fil2" d="M9.747 514.424c-2.543,-2.12 -5.085,-4.661 -7.204,-7.204l-2.543 0.847 0 8.05 9.322 0 0.425 -1.693z"/>
    <path class="fil0" d="M234.329 0l-115.68 0c2.966,6.356 5.509,12.713 6.779,19.068l-14.83 10.169c0.424,3.391 0.847,7.204 0.847,10.595l8.051 3.39 114.409 0c146.191,0 240.685,84.325 240.685,214.413 0,130.089 -94.494,214.413 -240.685,214.413l-93.222 0c0,0.847 -0.425,1.272 -0.425,2.119 -0.424,2.543 -1.271,5.084 -2.119,7.204l12.289 12.288c-2.966,7.204 -7.204,13.561 -11.864,19.915l-16.526 -5.084c-2.12,2.543 -4.661,5.084 -7.204,7.203l0 0 119.495 0c168.649,0 284.331,-101.697 284.331,-258.058 0.423,-155.937 -115.257,-257.635 -284.331,-257.635z"/>
    <path class="fil0" d="M86.868 398.74c-2.966,-1.271 -5.932,-2.543 -9.323,-2.966 -33.052,-8.05 -66.103,11.865 -74.154,44.918 -5.932,24.999 3.813,50.001 23.305,63.985l60.172 -105.937z"/>
    <path class="fil1" d="M103.817 409.335l-59.324 104.241c1.271,0.425 2.543,0.848 3.813,1.271 1.694,0.425 2.966,0.848 4.66,0.848l20.341 -0.002c23.306,-3.813 43.223,-21.186 49.577,-45.764 5.51,-22.881 -2.541,-45.764 -19.067,-60.594z"/>
   </g>
   <g>
    <g>
     <path class="fil1" d="M909.349 313.569c0,16.527 -6.357,29.663 -18.645,38.985 -11.017,8.898 -25,13.136 -42.374,13.136l-102.969 0 0 -30.085 102.969 -0.002c20.339,0 30.509,-7.204 30.509,-22.034l0 -7.203c0,-14.831 -10.17,-22.035 -30.509,-22.035l-46.187 0c-16.949,0 -31.356,-4.237 -42.373,-13.136 -12.289,-9.322 -18.646,-22.458 -18.646,-38.984l0 -7.204c0,-16.526 6.357,-29.662 18.646,-38.984 11.017,-8.899 25,-13.136 42.373,-13.136l103.392 0 0 30.085 -103.392 0.001c-20.339,0 -30.509,7.203 -30.509,22.034l0 7.204c0,14.83 10.17,22.033 30.509,22.033l46.187 0c16.949,0 31.357,4.238 42.374,13.136 12.288,9.324 18.645,22.459 18.645,38.986l0 7.203z"/>
     <path class="fil1" d="M978.843 136.022l-30.509 0 0 -34.747 30.509 0 0 34.747zm0 185.598l-30.509 0 0 -149.581 30.509 0 0 149.581zm0 43.222l-30.509 0 0 -30.086 30.509 0 0 30.086z"/>
     <path class="fil1" d="M1183.086 376.282c0,16.949 -5.932,30.934 -17.798,42.798 -11.864,11.442 -26.271,17.374 -43.222,17.374l-91.95 0 0 -30.085 91.951 0c8.475,0 15.679,-2.966 21.611,-8.899 5.933,-5.932 8.899,-13.136 8.899,-21.186l0 -12.713 -73.307 0c-16.95,0 -31.357,-5.933 -43.223,-17.374 -11.864,-11.441 -17.798,-25.848 -17.798,-42.797l0.002 -70.342c0,-16.949 5.932,-30.934 17.797,-42.798 11.865,-11.441 26.272,-17.373 43.223,-17.373l104.239 0 0 203.395 -0.424 0zm-30.509 -42.798l0 -130.512 -73.307 0.001c-8.476,0 -15.68,2.966 -21.612,8.898 -5.932,5.932 -8.898,13.136 -8.898,21.187l0 70.342c0,8.475 2.966,15.679 8.898,21.186 5.932,5.933 13.136,8.898 21.612,8.898l73.307 0 0 0z"/>
     <path class="fil1" d="M1390.295 364.842l-30.509 0 0 -131.784c0,-8.051 -2.966,-15.255 -8.898,-21.187 -5.933,-5.932 -13.136,-8.898 -21.187,-8.898l-76.273 0 0 161.869 -30.51 0 0 -191.954 106.358 -0.001c16.949,0 31.357,5.932 43.223,17.373 11.864,11.442 17.798,25.849 17.798,42.798l-0.002 131.784 0 0z"/>
     <path class="fil0" d="M1638.608 364.842l-28.391 0 -34.322 -100.003 -85.597 0 -32.628 100.003 -28.39 0 86.019 -262.72 33.477 0 89.832 262.72zm-72.883 -130.513l-33.475 -90.68 -32.205 90.68 65.68 0z"/>
     <path class="fil0" d="M1829.715 258.06l-30.085 0 0 -25.002c0,-8.051 -2.966,-15.255 -8.898,-21.187 -5.933,-5.932 -13.136,-8.898 -21.187,-8.898l-60.596 0 0 161.869 -30.509 0 0 -191.954 91.103 -0.001c16.949,0 31.357,5.932 43.223,17.373 11.864,11.442 17.798,25.849 17.798,42.798l0 25 -0.849 0.002z"/>
     <path class="fil0" d="M1992.009 364.842l-48.308 0c-17.373,0 -32.203,-5.509 -43.645,-16.949 -11.864,-11.441 -17.797,-25.849 -17.797,-43.222l0 -103.392 -19.069 -0.002 0 -30.934 19.07 0.002 0 -69.07 30.509 0 0 69.07 64.832 0 0 30.934 -64.409 -0.002 0 103.392c0,8.476 2.966,15.68 8.899,21.187 5.931,5.932 13.135,8.899 21.61,8.899l48.731 0.001 -0.423 30.086 0 0z"/>
     <path class="fil0" d="M2186.082 364.842l-30.509 0 0 -131.784c0,-8.476 -2.966,-15.679 -8.898,-21.187 -5.933,-5.932 -13.136,-8.898 -21.612,-8.898l-76.273 0 0 161.869 -30.509 0 0 -264.414 30.509 0 0 72.46 75.848 -0.001c17.374,0 31.782,5.509 43.646,16.949 11.864,11.439 17.798,25.849 17.798,43.222l0 131.784 0 0z"/>
    </g>
    <g>
     <g>
      <g>
       <g>
        <path class="fil1" d="M715.276 334.756l-0.425 30.084 -100.001 0.002c-17.374,0 -32.205,-5.509 -43.645,-16.949 -11.865,-11.441 -17.799,-25.849 -17.799,-43.222l0 -27.967c0,-17.374 5.932,-31.782 17.799,-43.223 11.865,-11.442 26.271,-16.949 43.645,-16.949l100.001 0.001 0 30.085 -100.001 0c-8.476,0 -15.679,2.967 -21.612,8.899 -5.932,5.931 -8.898,12.712 -8.898,21.187l0 1.693 120.766 0.002 0 25.001 -120.343 0 0 1.694c0.847,5.085 4.238,12.288 8.898,21.187 5.933,5.931 12.713,8.897 21.187,8.897l100.428 0.002 0 -0.424z"/>
       </g>
      </g>
     </g>
    </g>
   </g>
   <rect class="fil0" x="947.063" y="100.004" width="35.594" height="35.594"/>
  </g>
 </g>
</svg>
